<svg xmlns="http://www.w3.org/2000/svg" xmlns:xlink="http://www.w3.org/1999/xlink" width="500" zoomAndPan="magnify" viewBox="0 0 375 374.999991" height="500" preserveAspectRatio="xMidYMid meet" version="1.0"><defs><g/></defs><path fill="#003174" d="M 117.25 229.320312 L 187.65625 158.914062 L 258.054688 229.3125 C 217.851562 264.5625 157.449219 264.558594 117.25 229.320312 Z M 117.25 229.320312 " fill-opacity="1" fill-rule="evenodd"/><path fill="#003174" d="M 268.113281 78.457031 C 303.347656 118.65625 303.351562 179.0625 268.105469 219.261719 L 197.707031 148.863281 Z M 268.113281 78.457031 " fill-opacity="1" fill-rule="evenodd"/><path fill="#b61f26" d="M 107.195312 78.457031 L 177.601562 148.863281 L 107.195312 219.269531 C 71.957031 179.066406 71.957031 118.660156 107.195312 78.457031 Z M 107.195312 78.457031 " fill-opacity="1" fill-rule="evenodd"/><path fill="#b61f26" d="M 117.25 68.40625 C 157.453125 33.164062 217.855469 33.164062 258.058594 68.40625 L 187.65625 138.8125 Z M 117.25 68.40625 " fill-opacity="1" fill-rule="evenodd"/><path fill="#003174" d="M 184.4375 100.976562 L 187.625 90.613281 C 186.8125 89.003906 185.292969 85.925781 183.898438 82.777344 C 181.863281 78.171875 180.121094 73.480469 180.121094 73.480469 C 179.636719 72.550781 180.023438 71.347656 180.988281 70.800781 C 181.949219 70.25 183.125 70.554688 183.613281 71.484375 C 183.613281 71.484375 186.460938 75.542969 189.078125 79.816406 C 191.671875 84.054688 194.003906 88.453125 194.003906 88.453125 C 194.386719 89.179688 194.457031 90.046875 194.203125 90.867188 L 191.085938 100.992188 C 199.046875 101.558594 206.894531 104.097656 213.828125 108.609375 C 215.441406 105.980469 217.660156 102.378906 219.742188 99.074219 C 222.707031 94.363281 225.398438 90.25 225.398438 90.25 C 225.816406 89.578125 226.460938 89.066406 227.207031 88.816406 C 227.207031 88.816406 229.917969 87.960938 233.035156 87.15625 C 236.222656 86.332031 239.785156 85.550781 241.234375 85.234375 L 233.59375 92.875 C 232.191406 93.441406 230.917969 93.925781 230.039062 94.25 C 229.371094 95.375 228.191406 97.363281 226.789062 99.679688 L 216.203125 110.265625 C 218.089844 111.664062 219.894531 113.214844 221.601562 114.921875 C 223.957031 117.273438 226.011719 119.816406 227.777344 122.492188 C 228.28125 121.980469 228.945312 121.613281 229.691406 121.492188 L 252.75 117.683594 C 253.785156 117.511719 254.804688 117.84375 255.496094 118.574219 C 255.496094 118.574219 257.535156 120.695312 260.230469 123.667969 C 262.332031 125.988281 264.863281 128.789062 267.148438 131.488281 C 271.152344 136.21875 274.460938 140.535156 274.460938 140.535156 C 275.179688 141.292969 275.105469 142.53125 274.296875 143.300781 C 273.492188 144.070312 272.257812 144.078125 271.539062 143.324219 C 271.539062 143.324219 267.410156 139.792969 262.902344 135.542969 C 260.324219 133.117188 257.667969 130.441406 255.464844 128.21875 C 253.902344 126.644531 252.589844 125.28125 251.726562 124.378906 L 232.242188 127.570312 C 241.929688 138.835938 252.898438 154.734375 255.402344 170.25 C 257.210938 181.488281 251.25 191.84375 246.707031 197.863281 L 226.257812 177.40625 C 224.863281 179.296875 223.308594 181.101562 221.601562 182.820312 C 219.894531 184.519531 218.089844 186.066406 216.207031 187.460938 L 236.660156 207.917969 C 230.65625 212.449219 220.269531 218.445312 209 216.621094 C 193.476562 214.105469 177.585938 203.125 166.324219 193.433594 L 163.121094 212.921875 C 164.023438 213.78125 165.382812 215.09375 166.960938 216.664062 C 169.179688 218.855469 171.855469 221.519531 174.28125 224.097656 C 178.523438 228.609375 182.054688 232.757812 182.054688 232.757812 C 182.808594 233.464844 182.796875 234.691406 182.027344 235.507812 C 181.257812 236.300781 180.019531 236.386719 179.261719 235.65625 C 179.261719 235.65625 174.949219 232.347656 170.222656 228.351562 C 167.523438 226.050781 164.722656 223.515625 162.40625 221.433594 C 159.4375 218.726562 157.3125 216.683594 157.3125 216.683594 C 156.582031 215.996094 156.253906 214.964844 156.425781 213.933594 L 160.25 190.878906 C 160.375 190.125 160.738281 189.480469 161.253906 188.964844 C 158.582031 187.203125 156.058594 185.164062 153.710938 182.820312 C 152.003906 181.101562 150.453125 179.296875 149.054688 177.40625 L 138.601562 187.871094 C 136.214844 189.308594 134.160156 190.535156 133.011719 191.199219 C 132.675781 192.101562 132.171875 193.433594 131.582031 194.894531 L 123.964844 202.503906 C 124.261719 201.128906 125.066406 197.476562 125.914062 194.207031 C 126.722656 191.09375 127.574219 188.363281 127.574219 188.363281 C 127.824219 187.632812 128.339844 186.988281 129.011719 186.558594 C 129.011719 186.558594 133.125 183.875 137.839844 180.910156 C 141.148438 178.84375 144.75 176.609375 147.382812 175 C 142.871094 168.082031 140.339844 160.222656 139.777344 152.261719 L 129.652344 155.371094 C 128.832031 155.621094 127.96875 155.550781 127.242188 155.167969 C 127.242188 155.167969 122.84375 152.832031 118.605469 150.234375 C 114.335938 147.617188 110.273438 144.765625 110.273438 144.765625 C 109.347656 144.28125 109.042969 143.101562 109.59375 142.140625 C 110.144531 141.175781 111.347656 140.789062 112.273438 141.277344 C 112.273438 141.277344 116.96875 143.019531 121.566406 145.058594 C 124.714844 146.453125 127.796875 147.980469 129.402344 148.792969 L 139.769531 145.613281 C 140.015625 141.914062 140.695312 138.238281 141.792969 134.667969 C 141.480469 133.691406 141.21875 132.671875 141.027344 131.601562 C 140.378906 127.960938 142.34375 120.980469 144.082031 115.339844 L 138.4375 109.695312 L 134.617188 110.722656 C 134.0625 110.757812 133.511719 110.644531 133.03125 110.402344 C 133.03125 110.402344 132.230469 110.015625 131.195312 109.394531 C 130.378906 108.910156 129.414062 108.320312 128.5625 107.671875 C 127.007812 106.484375 125.882812 105.308594 125.882812 105.308594 C 124.949219 104.835938 124.625 103.664062 125.160156 102.695312 C 125.695312 101.726562 126.890625 101.320312 127.828125 101.792969 C 127.828125 101.792969 135.628906 98.164062 137.488281 98.699219 C 136.9375 96.796875 140.625 89.003906 140.625 89.003906 C 140.15625 88.066406 140.558594 86.871094 141.53125 86.335938 C 142.503906 85.800781 143.671875 86.125 144.140625 87.0625 C 144.140625 87.0625 145.320312 88.183594 146.507812 89.742188 C 147.15625 90.59375 147.738281 91.5625 148.226562 92.375 C 148.847656 93.410156 149.230469 94.214844 149.230469 94.214844 C 149.472656 94.695312 149.585938 95.242188 149.550781 95.800781 L 148.503906 99.660156 L 154.132812 105.289062 C 159.777344 103.546875 166.773438 101.570312 170.425781 102.222656 C 171.492188 102.414062 172.519531 102.679688 173.492188 102.992188 C 177.0625 101.894531 180.738281 101.222656 184.4375 100.976562 Z M 187.65625 138.8125 L 172.65625 124.054688 C 170.695312 125.242188 168.847656 126.679688 167.160156 128.367188 C 165.542969 129.984375 164.15625 131.746094 163.003906 133.609375 L 177.605469 148.863281 L 162.757812 163.714844 C 163.957031 165.738281 165.425781 167.628906 167.160156 169.371094 C 168.894531 171.089844 170.792969 172.570312 172.804688 173.773438 L 187.65625 158.914062 L 202.507812 173.773438 C 204.519531 172.570312 206.417969 171.089844 208.152344 169.371094 C 209.886719 167.628906 211.355469 165.738281 212.554688 163.710938 L 197.707031 148.863281 L 212.554688 134.015625 C 211.355469 132.003906 209.886719 130.101562 208.152344 128.367188 C 206.417969 126.636719 204.519531 125.164062 202.503906 123.964844 Z M 187.65625 138.8125 " fill-opacity="1" fill-rule="evenodd"/><path fill="#b61f26" d="M 159.105469 187.460938 L 226.257812 120.316406 C 226.785156 121.027344 227.292969 121.753906 227.777344 122.492188 C 228.28125 121.980469 228.945312 121.613281 229.691406 121.492188 L 252.75 117.683594 C 253.785156 117.511719 254.804688 117.84375 255.496094 118.574219 C 255.496094 118.574219 257.535156 120.695312 260.230469 123.667969 C 262.332031 125.988281 264.863281 128.789062 267.148438 131.488281 C 271.152344 136.21875 274.460938 140.535156 274.460938 140.535156 C 275.179688 141.292969 275.105469 142.53125 274.296875 143.300781 C 273.492188 144.070312 272.257812 144.078125 271.539062 143.324219 C 271.539062 143.324219 267.410156 139.792969 262.902344 135.542969 C 260.324219 133.117188 257.667969 130.441406 255.464844 128.21875 C 253.902344 126.644531 252.589844 125.28125 251.726562 124.378906 L 232.242188 127.570312 C 241.929688 138.835938 252.898438 154.734375 255.402344 170.25 C 257.210938 181.488281 247.078125 197.476562 242.53125 203.492188 C 236.527344 208.023438 220.269531 218.445312 209 216.621094 C 193.476562 214.105469 177.585938 203.125 166.324219 193.433594 L 163.121094 212.921875 C 164.023438 213.78125 165.382812 215.09375 166.960938 216.664062 C 169.179688 218.855469 171.855469 221.519531 174.28125 224.097656 C 178.523438 228.609375 182.054688 232.757812 182.054688 232.757812 C 182.808594 233.464844 182.796875 234.691406 182.027344 235.507812 C 181.257812 236.300781 180.019531 236.386719 179.261719 235.65625 C 179.261719 235.65625 174.949219 232.347656 170.222656 228.351562 C 167.523438 226.050781 164.722656 223.515625 162.40625 221.433594 C 159.4375 218.726562 157.3125 216.683594 157.3125 216.683594 C 156.582031 215.996094 156.253906 214.964844 156.425781 213.933594 L 160.25 190.878906 C 160.375 190.125 160.738281 189.480469 161.253906 188.964844 C 160.527344 188.492188 159.8125 188 159.105469 187.460938 Z M 159.105469 187.460938 " fill-opacity="1" fill-rule="evenodd"/><path fill="#ffffff" d="M 187.65625 138.8125 L 172.65625 124.054688 C 170.695312 125.242188 168.847656 126.679688 167.160156 128.367188 C 165.542969 129.984375 164.15625 131.746094 163.003906 133.609375 L 177.605469 148.863281 L 162.757812 163.714844 C 163.957031 165.738281 165.425781 167.628906 167.160156 169.371094 C 168.894531 171.089844 170.792969 172.570312 172.804688 173.773438 L 187.65625 158.914062 L 202.507812 173.773438 C 204.519531 172.570312 206.417969 171.089844 208.152344 169.371094 C 209.886719 167.628906 211.355469 165.738281 212.554688 163.710938 L 197.707031 148.863281 L 212.554688 134.015625 C 211.355469 132.003906 209.886719 130.101562 208.152344 128.367188 C 206.417969 126.636719 204.519531 125.164062 202.503906 123.964844 Z M 187.65625 138.8125 " fill-opacity="1" fill-rule="evenodd"/><path fill="#003174" d="M 292.121094 54.386719 C 342.167969 109.652344 340.539062 195.175781 287.25 248.460938 C 234.023438 301.6875 148.652344 303.363281 93.394531 253.535156 L 106.851562 240.039062 C 154.667969 282.496094 227.996094 280.820312 273.800781 235.011719 C 319.667969 189.136719 321.285156 115.679688 278.664062 67.871094 Z M 292.121094 54.386719 " fill-opacity="1" fill-rule="evenodd"/><path fill="#b61f26" d="M 83.199219 243.347656 C 33.144531 188.105469 34.765625 102.566406 88.0625 49.273438 C 141.285156 -3.953125 226.65625 -5.640625 281.925781 44.214844 L 268.472656 57.695312 C 220.644531 15.238281 147.3125 16.914062 101.511719 62.71875 C 55.640625 108.585938 54.023438 182.046875 96.65625 229.875 Z M 83.199219 243.347656 " fill-opacity="1" fill-rule="evenodd"/><g fill="#b61f26" fill-opacity="1"><g transform="translate(81.68991, 337.332928)"><g><path d="M 21.867188 -31.808594 C 21.867188 -36.367188 19.394531 -38.789062 14.835938 -38.789062 L 3.199219 -38.789062 C 2.714844 -38.789062 2.425781 -38.546875 2.425781 -38.015625 L 2.425781 -0.777344 C 2.425781 -0.289062 2.714844 0 3.199219 0 L 14.835938 0 C 19.394531 0 21.867188 -2.425781 21.867188 -6.980469 L 21.867188 -15.902344 C 21.867188 -17.699219 20.558594 -19.054688 18.8125 -19.347656 L 18.8125 -19.445312 C 20.558594 -19.734375 21.867188 -21.09375 21.867188 -22.886719 Z M 15.417969 -24.484375 C 15.417969 -23.273438 14.738281 -22.59375 13.480469 -22.59375 L 9.066406 -22.59375 L 9.066406 -32.390625 L 13.480469 -32.390625 C 14.789062 -32.390625 15.417969 -31.710938 15.417969 -30.449219 Z M 15.417969 -8.339844 C 15.417969 -7.03125 14.738281 -6.398438 13.480469 -6.398438 L 9.066406 -6.398438 L 9.066406 -16.195312 L 13.480469 -16.195312 C 14.789062 -16.195312 15.417969 -15.515625 15.417969 -14.253906 Z M 15.417969 -8.339844 "/></g></g></g><g fill="#b61f26" fill-opacity="1"><g transform="translate(105.978586, 337.332928)"><g><path d="M 16.390625 -38.789062 C 15.855469 -38.789062 15.417969 -38.355469 15.417969 -37.820312 L 15.417969 -8.339844 C 15.417969 -7.03125 14.738281 -6.398438 13.480469 -6.398438 L 10.957031 -6.398438 C 9.699219 -6.398438 9.019531 -7.03125 9.019531 -8.339844 L 9.019531 -37.820312 C 9.019531 -38.355469 8.582031 -38.789062 8.050781 -38.789062 L 3.394531 -38.789062 C 2.859375 -38.789062 2.425781 -38.355469 2.425781 -37.820312 L 2.425781 -6.980469 C 2.425781 -2.425781 4.847656 0 9.40625 0 L 14.835938 0 C 19.394531 0 21.820312 -2.425781 21.820312 -6.980469 L 21.820312 -37.820312 C 21.820312 -38.355469 21.382812 -38.789062 20.851562 -38.789062 Z M 16.390625 -38.789062 "/></g></g></g><g fill="#b61f26" fill-opacity="1"><g transform="translate(130.218785, 337.332928)"><g><path d="M 2.425781 -6.980469 C 2.425781 -2.425781 4.847656 0 9.40625 0 L 15.808594 0 C 20.316406 0 22.789062 -2.425781 22.789062 -6.980469 L 22.789062 -20.460938 C 22.789062 -20.996094 22.5 -21.238281 22.011719 -21.238281 L 13.867188 -21.238281 C 13.335938 -21.238281 13.089844 -20.996094 13.089844 -20.460938 L 13.089844 -15.613281 C 13.089844 -15.128906 13.335938 -14.835938 13.867188 -14.835938 L 16.390625 -14.835938 L 16.390625 -8.339844 C 16.390625 -7.03125 15.710938 -6.398438 14.449219 -6.398438 L 10.957031 -6.398438 C 9.699219 -6.398438 9.019531 -7.03125 9.019531 -8.339844 L 9.019531 -30.449219 C 9.019531 -31.710938 9.648438 -32.390625 10.957031 -32.390625 L 14.449219 -32.390625 C 15.710938 -32.390625 16.390625 -31.710938 16.390625 -30.449219 L 16.390625 -26.765625 C 16.390625 -26.28125 16.632812 -25.988281 17.164062 -25.988281 L 22.011719 -25.988281 C 22.5 -25.988281 22.789062 -26.28125 22.789062 -26.765625 L 22.789062 -31.808594 C 22.789062 -36.367188 20.316406 -38.789062 15.808594 -38.789062 L 9.40625 -38.789062 C 4.847656 -38.789062 2.425781 -36.367188 2.425781 -31.808594 Z M 2.425781 -6.980469 "/></g></g></g><g fill="#b61f26" fill-opacity="1"><g transform="translate(155.428584, 337.332928)"><g/></g></g><g fill="#b61f26" fill-opacity="1"><g transform="translate(167.548678, 337.332928)"><g><path d="M 2.230469 -38.789062 C 1.746094 -38.789062 1.453125 -38.5 1.453125 -38.015625 L 1.453125 -33.164062 C 1.453125 -32.679688 1.746094 -32.390625 2.230469 -32.390625 L 7.855469 -32.390625 L 7.855469 -0.777344 C 7.855469 -0.242188 8.144531 0 8.628906 0 L 13.671875 0 C 14.207031 0 14.449219 -0.242188 14.449219 -0.777344 L 14.449219 -32.390625 L 20.074219 -32.390625 C 20.605469 -32.390625 20.851562 -32.679688 20.851562 -33.164062 L 20.851562 -38.015625 C 20.851562 -38.5 20.605469 -38.789062 20.074219 -38.789062 Z M 2.230469 -38.789062 "/></g></g></g><g fill="#b61f26" fill-opacity="1"><g transform="translate(189.849652, 337.332928)"><g><path d="M 22.351562 -31.808594 C 22.351562 -36.367188 19.929688 -38.789062 15.371094 -38.789062 L 3.199219 -38.789062 C 2.714844 -38.789062 2.425781 -38.5 2.425781 -38.015625 L 2.425781 -0.777344 C 2.425781 -0.289062 2.714844 0 3.199219 0 L 8.242188 0 C 8.726562 0 9.019531 -0.289062 9.019531 -0.777344 L 9.019531 -12.996094 L 12.363281 -12.996094 L 15.613281 -0.679688 C 15.710938 -0.242188 15.953125 0 16.4375 0 L 21.480469 0 C 22.011719 0 22.304688 -0.289062 22.160156 -0.871094 L 18.8125 -13.578125 C 21.140625 -14.59375 22.351562 -16.726562 22.351562 -19.976562 Z M 9.019531 -19.394531 L 9.019531 -32.390625 L 13.820312 -32.390625 C 15.078125 -32.390625 15.757812 -31.710938 15.757812 -30.449219 L 15.757812 -21.335938 C 15.757812 -20.074219 15.078125 -19.394531 13.820312 -19.394531 Z M 9.019531 -19.394531 "/></g></g></g><g fill="#b61f26" fill-opacity="1"><g transform="translate(214.623133, 337.332928)"><g><path d="M 25.796875 0 C 26.378906 0 26.570312 -0.289062 26.472656 -0.824219 L 18.425781 -38.109375 C 18.328125 -38.597656 18.039062 -38.789062 17.601562 -38.789062 L 10.859375 -38.789062 C 10.425781 -38.789062 10.132812 -38.597656 10.035156 -38.109375 L 1.988281 -0.824219 C 1.84375 -0.289062 2.085938 0 2.617188 0 L 7.804688 0 C 8.242188 0 8.484375 -0.242188 8.582031 -0.679688 L 9.890625 -7.757812 L 18.523438 -7.757812 L 19.878906 -0.679688 C 19.976562 -0.242188 20.21875 0 20.65625 0 Z M 17.308594 -13.382812 L 11.105469 -13.382812 L 14.207031 -30.304688 Z M 17.308594 -13.382812 "/></g></g></g><g fill="#b61f26" fill-opacity="1"><g transform="translate(243.032643, 337.332928)"><g><path d="M 21.867188 -31.808594 C 21.867188 -36.367188 19.394531 -38.789062 14.886719 -38.789062 L 9.453125 -38.789062 C 4.898438 -38.789062 2.425781 -36.367188 2.425781 -31.808594 L 2.425781 -6.980469 C 2.425781 -2.425781 4.898438 0 9.453125 0 L 14.886719 0 C 19.394531 0 21.867188 -2.425781 21.867188 -6.980469 L 21.867188 -12.21875 C 21.867188 -12.703125 21.578125 -12.996094 21.09375 -12.996094 L 16.242188 -12.996094 C 15.710938 -12.996094 15.46875 -12.703125 15.46875 -12.21875 L 15.46875 -8.339844 C 15.46875 -7.03125 14.789062 -6.398438 13.527344 -6.398438 L 11.007812 -6.398438 C 9.746094 -6.398438 9.066406 -7.03125 9.066406 -8.339844 L 9.066406 -30.449219 C 9.066406 -31.710938 9.699219 -32.390625 11.007812 -32.390625 L 13.527344 -32.390625 C 14.789062 -32.390625 15.46875 -31.710938 15.46875 -30.449219 L 15.46875 -26.570312 C 15.46875 -26.085938 15.710938 -25.796875 16.242188 -25.796875 L 21.09375 -25.796875 C 21.578125 -25.796875 21.867188 -26.085938 21.867188 -26.570312 Z M 21.867188 -31.808594 "/></g></g></g><g fill="#b61f26" fill-opacity="1"><g transform="translate(267.321319, 337.332928)"><g><path d="M 23.175781 0 C 23.953125 0 24.242188 -0.484375 23.90625 -1.113281 L 15.128906 -20.703125 L 23.371094 -37.625 C 23.710938 -38.304688 23.417969 -38.789062 22.691406 -38.789062 L 17.601562 -38.789062 C 17.066406 -38.789062 16.726562 -38.546875 16.484375 -38.0625 L 9.019531 -22.789062 L 9.019531 -37.820312 C 9.019531 -38.449219 8.679688 -38.789062 8.050781 -38.789062 L 3.394531 -38.789062 C 2.765625 -38.789062 2.425781 -38.449219 2.425781 -37.820312 L 2.425781 -0.96875 C 2.425781 -0.339844 2.765625 0 3.394531 0 L 8.050781 0 C 8.679688 0 9.019531 -0.339844 9.019531 -0.96875 L 9.019531 -11.683594 L 10.8125 -15.128906 L 16.921875 -0.726562 C 17.117188 -0.242188 17.457031 0 18.039062 0 Z M 23.175781 0 "/></g></g></g><g fill="#1c2d7b" fill-opacity="1"><g transform="translate(80.981704, 349.594664)"><g><path d="M 5.167969 -7.4375 L 0.0234375 -7.4375 L 0.0234375 -6.308594 L 1.996094 -6.308594 L 1.996094 0 L 3.199219 0 L 3.199219 -6.308594 L 5.167969 -6.308594 Z M 5.167969 -7.4375 "/></g></g></g><g fill="#1c2d7b" fill-opacity="1"><g transform="translate(86.769231, 349.594664)"><g><path d="M 4.261719 -3.234375 C 5.191406 -3.433594 5.875 -4.25 5.875 -5.253906 C 5.875 -6.46875 4.933594 -7.4375 3.730469 -7.4375 L 0.816406 -7.4375 L 0.816406 0 L 2.03125 0 L 2.03125 -3.125 L 3.0625 -3.125 L 5.03125 0 L 6.394531 0 Z M 2.03125 -4.175781 L 2.03125 -6.308594 L 3.582031 -6.308594 C 4.214844 -6.308594 4.683594 -5.875 4.683594 -5.242188 C 4.683594 -4.609375 4.214844 -4.175781 3.582031 -4.175781 Z M 2.03125 -4.175781 "/></g></g></g><g fill="#1c2d7b" fill-opacity="1"><g transform="translate(93.783612, 349.594664)"><g><path d="M 5.328125 0 L 6.644531 0 L 3.953125 -7.4375 L 2.601562 -7.4375 L -0.0859375 0 L 1.226562 0 L 1.761719 -1.574219 L 4.796875 -1.574219 Z M 2.121094 -2.640625 L 3.285156 -6.109375 L 4.449219 -2.640625 Z M 2.121094 -2.640625 "/></g></g></g><g fill="#1c2d7b" fill-opacity="1"><g transform="translate(100.934314, 349.594664)"><g><path d="M 4.351562 0.0976562 C 5.800781 0.0976562 7.050781 -0.707031 7.695312 -1.894531 L 6.65625 -2.453125 C 6.222656 -1.636719 5.355469 -1.101562 4.351562 -1.101562 C 2.886719 -1.101562 1.734375 -2.242188 1.734375 -3.71875 C 1.734375 -5.191406 2.886719 -6.332031 4.351562 -6.332031 C 5.355469 -6.332031 6.222656 -5.800781 6.65625 -4.980469 L 7.695312 -5.539062 C 7.050781 -6.730469 5.800781 -7.535156 4.351562 -7.535156 C 2.242188 -7.535156 0.53125 -5.824219 0.53125 -3.71875 C 0.53125 -1.609375 2.242188 0.0976562 4.351562 0.0976562 Z M 4.351562 0.0976562 "/></g></g></g><g fill="#1c2d7b" fill-opacity="1"><g transform="translate(109.584513, 349.594664)"><g><path d="M 5.355469 0 L 7.003906 0 L 3.457031 -4.066406 L 6.753906 -7.4375 L 5.15625 -7.4375 L 2.453125 -4.597656 L 2.03125 -4.597656 L 2.03125 -7.4375 L 0.816406 -7.4375 L 0.816406 0 L 2.03125 0 L 2.03125 -3.507812 L 2.429688 -3.507812 Z M 5.355469 0 "/></g></g></g><g fill="#1c2d7b" fill-opacity="1"><g transform="translate(117.007849, 349.594664)"><g><path d="M 0.878906 0 L 2.09375 0 L 2.09375 -7.4375 L 0.878906 -7.4375 Z M 0.878906 0 "/></g></g></g><g fill="#1c2d7b" fill-opacity="1"><g transform="translate(120.564718, 349.594664)"><g><path d="M 6.160156 -7.4375 L 6.160156 -1.921875 L 2.03125 -7.4375 L 0.816406 -7.4375 L 0.816406 0 L 2.03125 0 L 2.03125 -5.527344 L 6.148438 0 L 7.363281 0 L 7.363281 -7.4375 Z M 6.160156 -7.4375 "/></g></g></g><g fill="#1c2d7b" fill-opacity="1"><g transform="translate(129.338842, 349.594664)"><g><path d="M 4.363281 -4.015625 L 4.363281 -3 L 6.890625 -3 C 6.59375 -1.882812 5.589844 -1.101562 4.375 -1.101562 C 2.898438 -1.101562 1.746094 -2.242188 1.746094 -3.71875 C 1.746094 -5.191406 2.898438 -6.332031 4.375 -6.332031 C 5.378906 -6.332031 6.234375 -5.800781 6.679688 -4.980469 L 7.722656 -5.539062 C 7.078125 -6.730469 5.8125 -7.535156 4.375 -7.535156 C 2.253906 -7.535156 0.558594 -5.824219 0.558594 -3.71875 C 0.558594 -1.609375 2.253906 0.0976562 4.375 0.0976562 C 6.480469 0.0976562 8.191406 -1.609375 8.191406 -3.71875 L 8.191406 -4.015625 Z M 4.363281 -4.015625 "/></g></g></g><g fill="#1c2d7b" fill-opacity="1"><g transform="translate(138.670629, 349.594664)"><g/></g></g><g fill="#1c2d7b" fill-opacity="1"><g transform="translate(142.239892, 349.594664)"><g><path d="M 3.71875 0.0976562 C 5.402344 0.0976562 6.667969 -0.980469 6.667969 -2.417969 L 6.667969 -7.4375 L 5.453125 -7.4375 L 5.453125 -2.628906 C 5.453125 -1.710938 4.710938 -1.027344 3.71875 -1.027344 C 2.726562 -1.027344 1.996094 -1.710938 1.996094 -2.628906 L 1.996094 -7.4375 L 0.78125 -7.4375 L 0.78125 -2.417969 C 0.78125 -0.980469 2.03125 0.0976562 3.71875 0.0976562 Z M 3.71875 0.0976562 "/></g></g></g><g fill="#1c2d7b" fill-opacity="1"><g transform="translate(150.282856, 349.594664)"><g><path d="M 6.160156 -7.4375 L 6.160156 -1.921875 L 2.03125 -7.4375 L 0.816406 -7.4375 L 0.816406 0 L 2.03125 0 L 2.03125 -5.527344 L 6.148438 0 L 7.363281 0 L 7.363281 -7.4375 Z M 6.160156 -7.4375 "/></g></g></g><g fill="#1c2d7b" fill-opacity="1"><g transform="translate(159.056984, 349.594664)"><g><path d="M 0.816406 0 L 3.050781 0 C 5.105469 0 6.765625 -1.660156 6.765625 -3.71875 C 6.765625 -5.777344 5.105469 -7.4375 3.050781 -7.4375 L 0.816406 -7.4375 Z M 2.019531 -1.128906 L 2.019531 -6.308594 L 3.050781 -6.308594 C 4.460938 -6.308594 5.566406 -5.207031 5.566406 -3.71875 C 5.566406 -2.230469 4.460938 -1.128906 3.050781 -1.128906 Z M 2.019531 -1.128906 "/></g></g></g><g fill="#1c2d7b" fill-opacity="1"><g transform="translate(166.951232, 349.594664)"><g><path d="M 4.351562 0.0976562 C 6.457031 0.0976562 8.167969 -1.609375 8.167969 -3.71875 C 8.167969 -5.824219 6.457031 -7.535156 4.351562 -7.535156 C 2.242188 -7.535156 0.53125 -5.824219 0.53125 -3.71875 C 0.53125 -1.609375 2.242188 0.0976562 4.351562 0.0976562 Z M 4.351562 -1.101562 C 2.886719 -1.101562 1.734375 -2.242188 1.734375 -3.71875 C 1.734375 -5.191406 2.886719 -6.332031 4.351562 -6.332031 C 5.824219 -6.332031 6.964844 -5.191406 6.964844 -3.71875 C 6.964844 -2.242188 5.824219 -1.101562 4.351562 -1.101562 Z M 4.351562 -1.101562 "/></g></g></g><g fill="#1c2d7b" fill-opacity="1"><g transform="translate(176.245837, 349.594664)"><g><path d="M 4.351562 0.0976562 C 5.800781 0.0976562 7.050781 -0.707031 7.695312 -1.894531 L 6.65625 -2.453125 C 6.222656 -1.636719 5.355469 -1.101562 4.351562 -1.101562 C 2.886719 -1.101562 1.734375 -2.242188 1.734375 -3.71875 C 1.734375 -5.191406 2.886719 -6.332031 4.351562 -6.332031 C 5.355469 -6.332031 6.222656 -5.800781 6.65625 -4.980469 L 7.695312 -5.539062 C 7.050781 -6.730469 5.800781 -7.535156 4.351562 -7.535156 C 2.242188 -7.535156 0.53125 -5.824219 0.53125 -3.71875 C 0.53125 -1.609375 2.242188 0.0976562 4.351562 0.0976562 Z M 4.351562 0.0976562 "/></g></g></g><g fill="#1c2d7b" fill-opacity="1"><g transform="translate(184.896031, 349.594664)"><g><path d="M 3.71875 0.0976562 C 5.402344 0.0976562 6.667969 -0.980469 6.667969 -2.417969 L 6.667969 -7.4375 L 5.453125 -7.4375 L 5.453125 -2.628906 C 5.453125 -1.710938 4.710938 -1.027344 3.71875 -1.027344 C 2.726562 -1.027344 1.996094 -1.710938 1.996094 -2.628906 L 1.996094 -7.4375 L 0.78125 -7.4375 L 0.78125 -2.417969 C 0.78125 -0.980469 2.03125 0.0976562 3.71875 0.0976562 Z M 3.71875 0.0976562 "/></g></g></g><g fill="#1c2d7b" fill-opacity="1"><g transform="translate(192.938995, 349.594664)"><g><path d="M 7.335938 -7.4375 L 4.722656 -1.609375 L 2.121094 -7.4375 L 0.816406 -7.4375 L 0.816406 0 L 2.03125 0 L 2.03125 -5.117188 L 4.3125 0 L 5.117188 0 L 7.425781 -5.132812 L 7.425781 0 L 8.625 0 L 8.625 -7.4375 Z M 7.335938 -7.4375 "/></g></g></g><g fill="#1c2d7b" fill-opacity="1"><g transform="translate(202.977156, 349.594664)"><g><path d="M 5.144531 -6.332031 L 5.144531 -7.4375 L 0.878906 -7.4375 L 0.878906 0 L 5.144531 0 L 5.144531 -1.101562 L 2.09375 -1.101562 L 2.09375 -3.160156 L 4.734375 -3.160156 L 4.734375 -4.277344 L 2.09375 -4.277344 L 2.09375 -6.332031 Z M 5.144531 -6.332031 "/></g></g></g><g fill="#1c2d7b" fill-opacity="1"><g transform="translate(209.347132, 349.594664)"><g><path d="M 6.160156 -7.4375 L 6.160156 -1.921875 L 2.03125 -7.4375 L 0.816406 -7.4375 L 0.816406 0 L 2.03125 0 L 2.03125 -5.527344 L 6.148438 0 L 7.363281 0 L 7.363281 -7.4375 Z M 6.160156 -7.4375 "/></g></g></g><g fill="#1c2d7b" fill-opacity="1"><g transform="translate(218.12126, 349.594664)"><g><path d="M 5.167969 -7.4375 L 0.0234375 -7.4375 L 0.0234375 -6.308594 L 1.996094 -6.308594 L 1.996094 0 L 3.199219 0 L 3.199219 -6.308594 L 5.167969 -6.308594 Z M 5.167969 -7.4375 "/></g></g></g><g fill="#1c2d7b" fill-opacity="1"><g transform="translate(223.908788, 349.594664)"><g><path d="M 5.144531 -6.332031 L 5.144531 -7.4375 L 0.878906 -7.4375 L 0.878906 0 L 5.144531 0 L 5.144531 -1.101562 L 2.09375 -1.101562 L 2.09375 -3.160156 L 4.734375 -3.160156 L 4.734375 -4.277344 L 2.09375 -4.277344 L 2.09375 -6.332031 Z M 5.144531 -6.332031 "/></g></g></g><g fill="#1c2d7b" fill-opacity="1"><g transform="translate(230.278764, 349.594664)"><g><path d="M 0.816406 0 L 3.050781 0 C 5.105469 0 6.765625 -1.660156 6.765625 -3.71875 C 6.765625 -5.777344 5.105469 -7.4375 3.050781 -7.4375 L 0.816406 -7.4375 Z M 2.019531 -1.128906 L 2.019531 -6.308594 L 3.050781 -6.308594 C 4.460938 -6.308594 5.566406 -5.207031 5.566406 -3.71875 C 5.566406 -2.230469 4.460938 -1.128906 3.050781 -1.128906 Z M 2.019531 -1.128906 "/></g></g></g><g fill="#1c2d7b" fill-opacity="1"><g transform="translate(238.173012, 349.594664)"><g/></g></g><g fill="#1c2d7b" fill-opacity="1"><g transform="translate(241.742275, 349.594664)"><g><path d="M 5.144531 -6.332031 L 5.144531 -7.4375 L 0.878906 -7.4375 L 0.878906 0 L 2.09375 0 L 2.09375 -3.160156 L 4.734375 -3.160156 L 4.734375 -4.277344 L 2.09375 -4.277344 L 2.09375 -6.332031 Z M 5.144531 -6.332031 "/></g></g></g><g fill="#1c2d7b" fill-opacity="1"><g transform="translate(247.641338, 349.594664)"><g><path d="M 5.144531 -6.332031 L 5.144531 -7.4375 L 0.878906 -7.4375 L 0.878906 0 L 5.144531 0 L 5.144531 -1.101562 L 2.09375 -1.101562 L 2.09375 -3.160156 L 4.734375 -3.160156 L 4.734375 -4.277344 L 2.09375 -4.277344 L 2.09375 -6.332031 Z M 5.144531 -6.332031 "/></g></g></g><g fill="#1c2d7b" fill-opacity="1"><g transform="translate(254.011314, 349.594664)"><g><path d="M 5.328125 0 L 6.644531 0 L 3.953125 -7.4375 L 2.601562 -7.4375 L -0.0859375 0 L 1.226562 0 L 1.761719 -1.574219 L 4.796875 -1.574219 Z M 2.121094 -2.640625 L 3.285156 -6.109375 L 4.449219 -2.640625 Z M 2.121094 -2.640625 "/></g></g></g><g fill="#1c2d7b" fill-opacity="1"><g transform="translate(261.162017, 349.594664)"><g><path d="M 5.167969 -7.4375 L 0.0234375 -7.4375 L 0.0234375 -6.308594 L 1.996094 -6.308594 L 1.996094 0 L 3.199219 0 L 3.199219 -6.308594 L 5.167969 -6.308594 Z M 5.167969 -7.4375 "/></g></g></g><g fill="#1c2d7b" fill-opacity="1"><g transform="translate(266.949545, 349.594664)"><g><path d="M 3.71875 0.0976562 C 5.402344 0.0976562 6.667969 -0.980469 6.667969 -2.417969 L 6.667969 -7.4375 L 5.453125 -7.4375 L 5.453125 -2.628906 C 5.453125 -1.710938 4.710938 -1.027344 3.71875 -1.027344 C 2.726562 -1.027344 1.996094 -1.710938 1.996094 -2.628906 L 1.996094 -7.4375 L 0.78125 -7.4375 L 0.78125 -2.417969 C 0.78125 -0.980469 2.03125 0.0976562 3.71875 0.0976562 Z M 3.71875 0.0976562 "/></g></g></g><g fill="#1c2d7b" fill-opacity="1"><g transform="translate(274.99251, 349.594664)"><g><path d="M 4.261719 -3.234375 C 5.191406 -3.433594 5.875 -4.25 5.875 -5.253906 C 5.875 -6.46875 4.933594 -7.4375 3.730469 -7.4375 L 0.816406 -7.4375 L 0.816406 0 L 2.03125 0 L 2.03125 -3.125 L 3.0625 -3.125 L 5.03125 0 L 6.394531 0 Z M 2.03125 -4.175781 L 2.03125 -6.308594 L 3.582031 -6.308594 C 4.214844 -6.308594 4.683594 -5.875 4.683594 -5.242188 C 4.683594 -4.609375 4.214844 -4.175781 3.582031 -4.175781 Z M 2.03125 -4.175781 "/></g></g></g><g fill="#1c2d7b" fill-opacity="1"><g transform="translate(282.006891, 349.594664)"><g><path d="M 5.144531 -6.332031 L 5.144531 -7.4375 L 0.878906 -7.4375 L 0.878906 0 L 5.144531 0 L 5.144531 -1.101562 L 2.09375 -1.101562 L 2.09375 -3.160156 L 4.734375 -3.160156 L 4.734375 -4.277344 L 2.09375 -4.277344 L 2.09375 -6.332031 Z M 5.144531 -6.332031 "/></g></g></g><g fill="#1c2d7b" fill-opacity="1"><g transform="translate(288.376855, 349.594664)"><g><path d="M 2.886719 0.0976562 C 4.226562 0.0976562 5.316406 -0.695312 5.316406 -2.03125 C 5.316406 -4.671875 1.796875 -4.027344 1.796875 -5.550781 C 1.796875 -6.136719 2.253906 -6.40625 2.800781 -6.40625 C 3.296875 -6.40625 3.742188 -6.183594 4.078125 -5.761719 L 4.933594 -6.542969 C 4.460938 -7.125 3.679688 -7.535156 2.800781 -7.535156 C 1.636719 -7.535156 0.582031 -6.804688 0.582031 -5.464844 C 0.582031 -3 4.101562 -3.605469 4.101562 -2.03125 C 4.101562 -1.425781 3.59375 -1.066406 2.898438 -1.066406 C 2.144531 -1.066406 1.574219 -1.488281 1.3125 -2.121094 L 0.273438 -1.488281 C 0.707031 -0.558594 1.699219 0.0976562 2.886719 0.0976562 Z M 2.886719 0.0976562 "/></g></g></g><g fill="#1c2d7b" fill-opacity="1"><g transform="translate(152.923105, 359.344664)"><g><path d="M 2.03125 -1.128906 L 2.03125 -7.4375 L 0.816406 -7.4375 L 0.816406 0 L 4.648438 0 L 4.648438 -1.128906 Z M 2.03125 -1.128906 "/></g></g></g><g fill="#1c2d7b" fill-opacity="1"><g transform="translate(158.227326, 359.344664)"><g><path d="M 0.878906 0 L 2.09375 0 L 2.09375 -7.4375 L 0.878906 -7.4375 Z M 0.878906 0 "/></g></g></g><g fill="#1c2d7b" fill-opacity="1"><g transform="translate(161.784194, 359.344664)"><g><path d="M 5.355469 0 L 7.003906 0 L 3.457031 -4.066406 L 6.753906 -7.4375 L 5.15625 -7.4375 L 2.453125 -4.597656 L 2.03125 -4.597656 L 2.03125 -7.4375 L 0.816406 -7.4375 L 0.816406 0 L 2.03125 0 L 2.03125 -3.507812 L 2.429688 -3.507812 Z M 5.355469 0 "/></g></g></g><g fill="#1c2d7b" fill-opacity="1"><g transform="translate(169.207529, 359.344664)"><g><path d="M 5.144531 -6.332031 L 5.144531 -7.4375 L 0.878906 -7.4375 L 0.878906 0 L 5.144531 0 L 5.144531 -1.101562 L 2.09375 -1.101562 L 2.09375 -3.160156 L 4.734375 -3.160156 L 4.734375 -4.277344 L 2.09375 -4.277344 L 2.09375 -6.332031 Z M 5.144531 -6.332031 "/></g></g></g><g fill="#1c2d7b" fill-opacity="1"><g transform="translate(175.577504, 359.344664)"><g/></g></g><g fill="#1c2d7b" fill-opacity="1"><g transform="translate(179.146768, 359.344664)"><g><path d="M 5.328125 0 L 6.644531 0 L 3.953125 -7.4375 L 2.601562 -7.4375 L -0.0859375 0 L 1.226562 0 L 1.761719 -1.574219 L 4.796875 -1.574219 Z M 2.121094 -2.640625 L 3.285156 -6.109375 L 4.449219 -2.640625 Z M 2.121094 -2.640625 "/></g></g></g><g fill="#1c2d7b" fill-opacity="1"><g transform="translate(186.297471, 359.344664)"><g/></g></g><g fill="#1c2d7b" fill-opacity="1"><g transform="translate(189.866734, 359.344664)"><g><path d="M 4.894531 -3.769531 C 5.503906 -4.066406 5.886719 -4.621094 5.886719 -5.417969 C 5.886719 -6.644531 4.933594 -7.4375 3.742188 -7.4375 L 0.816406 -7.4375 L 0.816406 0 L 4.015625 0 C 5.191406 0 6.136719 -0.769531 6.136719 -1.996094 C 6.136719 -2.898438 5.625 -3.496094 4.894531 -3.769531 Z M 4.671875 -5.292969 C 4.671875 -4.710938 4.1875 -4.25 3.605469 -4.25 L 2.019531 -4.25 L 2.019531 -6.308594 L 3.605469 -6.308594 C 4.1875 -6.308594 4.671875 -5.886719 4.671875 -5.292969 Z M 3.84375 -1.128906 L 2.019531 -1.128906 L 2.019531 -3.183594 L 3.84375 -3.183594 C 4.4375 -3.183594 4.921875 -2.726562 4.921875 -2.144531 C 4.921875 -1.5625 4.4375 -1.128906 3.84375 -1.128906 Z M 3.84375 -1.128906 "/></g></g></g><g fill="#1c2d7b" fill-opacity="1"><g transform="translate(197.067001, 359.344664)"><g><path d="M 4.351562 0.0976562 C 6.457031 0.0976562 8.167969 -1.609375 8.167969 -3.71875 C 8.167969 -5.824219 6.457031 -7.535156 4.351562 -7.535156 C 2.242188 -7.535156 0.53125 -5.824219 0.53125 -3.71875 C 0.53125 -1.609375 2.242188 0.0976562 4.351562 0.0976562 Z M 4.351562 -1.101562 C 2.886719 -1.101562 1.734375 -2.242188 1.734375 -3.71875 C 1.734375 -5.191406 2.886719 -6.332031 4.351562 -6.332031 C 5.824219 -6.332031 6.964844 -5.191406 6.964844 -3.71875 C 6.964844 -2.242188 5.824219 -1.101562 4.351562 -1.101562 Z M 4.351562 -1.101562 "/></g></g></g><g fill="#1c2d7b" fill-opacity="1"><g transform="translate(206.361603, 359.344664)"><g><path d="M 2.886719 0.0976562 C 4.226562 0.0976562 5.316406 -0.695312 5.316406 -2.03125 C 5.316406 -4.671875 1.796875 -4.027344 1.796875 -5.550781 C 1.796875 -6.136719 2.253906 -6.40625 2.800781 -6.40625 C 3.296875 -6.40625 3.742188 -6.183594 4.078125 -5.761719 L 4.933594 -6.542969 C 4.460938 -7.125 3.679688 -7.535156 2.800781 -7.535156 C 1.636719 -7.535156 0.582031 -6.804688 0.582031 -5.464844 C 0.582031 -3 4.101562 -3.605469 4.101562 -2.03125 C 4.101562 -1.425781 3.59375 -1.066406 2.898438 -1.066406 C 2.144531 -1.066406 1.574219 -1.488281 1.3125 -2.121094 L 0.273438 -1.488281 C 0.707031 -0.558594 1.699219 0.0976562 2.886719 0.0976562 Z M 2.886719 0.0976562 "/></g></g></g><g fill="#1c2d7b" fill-opacity="1"><g transform="translate(212.582863, 359.344664)"><g><path d="M 2.886719 0.0976562 C 4.226562 0.0976562 5.316406 -0.695312 5.316406 -2.03125 C 5.316406 -4.671875 1.796875 -4.027344 1.796875 -5.550781 C 1.796875 -6.136719 2.253906 -6.40625 2.800781 -6.40625 C 3.296875 -6.40625 3.742188 -6.183594 4.078125 -5.761719 L 4.933594 -6.542969 C 4.460938 -7.125 3.679688 -7.535156 2.800781 -7.535156 C 1.636719 -7.535156 0.582031 -6.804688 0.582031 -5.464844 C 0.582031 -3 4.101562 -3.605469 4.101562 -2.03125 C 4.101562 -1.425781 3.59375 -1.066406 2.898438 -1.066406 C 2.144531 -1.066406 1.574219 -1.488281 1.3125 -2.121094 L 0.273438 -1.488281 C 0.707031 -0.558594 1.699219 0.0976562 2.886719 0.0976562 Z M 2.886719 0.0976562 "/></g></g></g><g fill="#1c2d7b" fill-opacity="1"><g transform="translate(218.804122, 359.344664)"><g><path d="M 1.175781 -2.34375 L 2.070312 -2.34375 L 2.207031 -7.992188 L 1.042969 -7.992188 Z M 1.625 0.0976562 C 2.007812 0.0976562 2.328125 -0.222656 2.328125 -0.605469 C 2.328125 -0.992188 2.007812 -1.300781 1.625 -1.300781 C 1.238281 -1.300781 0.929688 -0.992188 0.929688 -0.605469 C 0.929688 -0.222656 1.238281 0.0976562 1.625 0.0976562 Z M 1.625 0.0976562 "/></g></g></g></svg>